solid OpenSCAD_Model
  facet normal 0 -0.894427 0.447214
    outer loop
      vertex -4.75 -4.75 0.5
      vertex -0.25 -0.75 8.5
      vertex 0 0 10
    endloop
  endfacet
  facet normal 0 -0.894427 0.447214
    outer loop
      vertex -4 -4.5 1
      vertex -4.75 -4.75 0.5
      vertex 4 -4.5 1
    endloop
  endfacet
  facet normal 0 -0.894427 0.447214
    outer loop
      vertex -0.25 -0.75 8.5
      vertex -4.75 -4.75 0.5
      vertex -4 -4.5 1
    endloop
  endfacet
  facet normal 0 -0.894427 0.447214
    outer loop
      vertex 0.25 -0.75 8.5
      vertex 0 0 10
      vertex -0.25 -0.75 8.5
    endloop
  endfacet
  facet normal 0 -0.894427 0.447214
    outer loop
      vertex 4.75 -4.75 0.5
      vertex 0.25 -0.75 8.5
      vertex 4 -4.5 1
    endloop
  endfacet
  facet normal 0 -0.894427 0.447214
    outer loop
      vertex 0.25 -0.75 8.5
      vertex 4.75 -4.75 0.5
      vertex 0 0 10
    endloop
  endfacet
  facet normal 0 -0.894427 0.447214
    outer loop
      vertex 4.75 -4.75 0.5
      vertex 4 -4.5 1
      vertex -4.75 -4.75 0.5
    endloop
  endfacet
  facet normal -0.894427 0 0.447214
    outer loop
      vertex -4.75 4.75 0.5
      vertex -4.5 -4 1
      vertex -4.5 4 1
    endloop
  endfacet
  facet normal -0.894427 0 0.447214
    outer loop
      vertex -4.5 -4 1
      vertex -4.75 4.75 0.5
      vertex -4.75 -4.75 0.5
    endloop
  endfacet
  facet normal -0.894427 0 0.447214
    outer loop
      vertex -0.75 0.25 8.5
      vertex -4.75 4.75 0.5
      vertex -4.5 4 1
    endloop
  endfacet
  facet normal -0.894427 0 0.447214
    outer loop
      vertex -0.75 0.25 8.5
      vertex 0 0 10
      vertex -4.75 4.75 0.5
    endloop
  endfacet
  facet normal -0.894427 0 0.447214
    outer loop
      vertex -0.75 -0.25 8.5
      vertex 0 0 10
      vertex -0.75 0.25 8.5
    endloop
  endfacet
  facet normal -0.894427 0 0.447214
    outer loop
      vertex -4.75 -4.75 0.5
      vertex -0.75 -0.25 8.5
      vertex -4.5 -4 1
    endloop
  endfacet
  facet normal -0.894427 0 0.447214
    outer loop
      vertex -0.75 -0.25 8.5
      vertex -4.75 -4.75 0.5
      vertex 0 0 10
    endloop
  endfacet
  facet normal 0 0.894427 0.447214
    outer loop
      vertex 4.75 4.75 0.5
      vertex 0.25 0.75 8.5
      vertex 0 0 10
    endloop
  endfacet
  facet normal 0 0.894427 0.447214
    outer loop
      vertex 4 4.5 1
      vertex 4.75 4.75 0.5
      vertex -4 4.5 1
    endloop
  endfacet
  facet normal 0 0.894427 0.447214
    outer loop
      vertex 0.25 0.75 8.5
      vertex 4.75 4.75 0.5
      vertex 4 4.5 1
    endloop
  endfacet
  facet normal -0 0.894427 0.447214
    outer loop
      vertex -0.25 0.75 8.5
      vertex 0 0 10
      vertex 0.25 0.75 8.5
    endloop
  endfacet
  facet normal 0 0.894427 0.447214
    outer loop
      vertex -4.75 4.75 0.5
      vertex -0.25 0.75 8.5
      vertex -4 4.5 1
    endloop
  endfacet
  facet normal 0 0.894427 0.447214
    outer loop
      vertex -0.25 0.75 8.5
      vertex -4.75 4.75 0.5
      vertex 0 0 10
    endloop
  endfacet
  facet normal -0 0.894427 0.447214
    outer loop
      vertex -4.75 4.75 0.5
      vertex -4 4.5 1
      vertex 4.75 4.75 0.5
    endloop
  endfacet
  facet normal 0.894427 0 0.447214
    outer loop
      vertex 4.75 4.75 0.5
      vertex 0.75 0.25 8.5
      vertex 4.5 4 1
    endloop
  endfacet
  facet normal 0.894427 0 0.447214
    outer loop
      vertex 0 0 10
      vertex 0.75 0.25 8.5
      vertex 4.75 4.75 0.5
    endloop
  endfacet
  facet normal 0.894427 0 0.447214
    outer loop
      vertex 0 0 10
      vertex 0.75 -0.25 8.5
      vertex 0.75 0.25 8.5
    endloop
  endfacet
  facet normal 0.894427 0 0.447214
    outer loop
      vertex 4.75 -4.75 0.5
      vertex 0.75 -0.25 8.5
      vertex 0 0 10
    endloop
  endfacet
  facet normal 0.894427 0 0.447214
    outer loop
      vertex 0.75 -0.25 8.5
      vertex 4.75 -4.75 0.5
      vertex 4.5 -4 1
    endloop
  endfacet
  facet normal 0.894427 -0 0.447214
    outer loop
      vertex 4.5 -4 1
      vertex 4.75 4.75 0.5
      vertex 4.5 4 1
    endloop
  endfacet
  facet normal 0.894427 0 0.447214
    outer loop
      vertex 4.75 4.75 0.5
      vertex 4.5 -4 1
      vertex 4.75 -4.75 0.5
    endloop
  endfacet
  facet normal -0 0 1
    outer loop
      vertex -4.5 4 1
      vertex -4 -4 1
      vertex -4 4 1
    endloop
  endfacet
  facet normal 0 0 1
    outer loop
      vertex -4 -4 1
      vertex -4.5 4 1
      vertex -4.5 -4 1
    endloop
  endfacet
  facet normal -0 0 1
    outer loop
      vertex 4 4 1
      vertex 4.5 -4 1
      vertex 4.5 4 1
    endloop
  endfacet
  facet normal 0 0 1
    outer loop
      vertex 4.5 -4 1
      vertex 4 4 1
      vertex 4 -4 1
    endloop
  endfacet
  facet normal -0 0 1
    outer loop
      vertex -4 -4 1
      vertex 4 -4.5 1
      vertex 4 -4 1
    endloop
  endfacet
  facet normal 0 0 1
    outer loop
      vertex 4 -4.5 1
      vertex -4 -4 1
      vertex -4 -4.5 1
    endloop
  endfacet
  facet normal -0 0 1
    outer loop
      vertex -4 4.5 1
      vertex 4 4 1
      vertex 4 4.5 1
    endloop
  endfacet
  facet normal 0 0 1
    outer loop
      vertex 4 4 1
      vertex -4 4.5 1
      vertex -4 4 1
    endloop
  endfacet
  facet normal 0 0.894427 -0.447214
    outer loop
      vertex -4 -3.875 1.25
      vertex -0.5 -0.5 8
      vertex -3.875 -3.875 1.25
    endloop
  endfacet
  facet normal 0 0.894427 -0.447214
    outer loop
      vertex -0.5 -0.5 8
      vertex -4 -3.875 1.25
      vertex -0.75 -0.25 8.5
    endloop
  endfacet
  facet normal 0 0.894427 -0.447214
    outer loop
      vertex -4 -3.875 1.25
      vertex -4.5 -4 1
      vertex -0.75 -0.25 8.5
    endloop
  endfacet
  facet normal 0 0.894427 -0.447214
    outer loop
      vertex -4.5 -4 1
      vertex -4 -3.875 1.25
      vertex -4 -4 1
    endloop
  endfacet
  facet normal 0 0.894427 -0.447214
    outer loop
      vertex 0.75 -0.25 8.5
      vertex 4 -3.875 1.25
      vertex 0.5 -0.5 8
    endloop
  endfacet
  facet normal 0 0.894427 -0.447214
    outer loop
      vertex 4.5 -4 1
      vertex 4 -3.875 1.25
      vertex 0.75 -0.25 8.5
    endloop
  endfacet
  facet normal 0 0.894427 -0.447214
    outer loop
      vertex 4 -3.875 1.25
      vertex 4.5 -4 1
      vertex 4 -4 1
    endloop
  endfacet
  facet normal 0 0.894427 -0.447214
    outer loop
      vertex 0.5 -0.5 8
      vertex 4 -3.875 1.25
      vertex 3.875 -3.875 1.25
    endloop
  endfacet
  facet normal 0 -0.894427 -0.447214
    outer loop
      vertex -0.75 0.25 8.5
      vertex -4 3.875 1.25
      vertex -0.5 0.5 8
    endloop
  endfacet
  facet normal 0 -0.894427 -0.447214
    outer loop
      vertex -4.5 4 1
      vertex -4 3.875 1.25
      vertex -0.75 0.25 8.5
    endloop
  endfacet
  facet normal 0 -0.894427 -0.447214
    outer loop
      vertex -4 3.875 1.25
      vertex -4.5 4 1
      vertex -4 4 1
    endloop
  endfacet
  facet normal 0 -0.894427 -0.447214
    outer loop
      vertex -0.5 0.5 8
      vertex -4 3.875 1.25
      vertex -3.875 3.875 1.25
    endloop
  endfacet
  facet normal -0 -0.894427 -0.447214
    outer loop
      vertex 4 3.875 1.25
      vertex 0.5 0.5 8
      vertex 3.875 3.875 1.25
    endloop
  endfacet
  facet normal 0 -0.894427 -0.447214
    outer loop
      vertex 0.5 0.5 8
      vertex 4 3.875 1.25
      vertex 0.75 0.25 8.5
    endloop
  endfacet
  facet normal 0 -0.894427 -0.447214
    outer loop
      vertex 4 3.875 1.25
      vertex 4.5 4 1
      vertex 0.75 0.25 8.5
    endloop
  endfacet
  facet normal -0 -0.894427 -0.447214
    outer loop
      vertex 4.5 4 1
      vertex 4 3.875 1.25
      vertex 4 4 1
    endloop
  endfacet
  facet normal -0.894427 0 -0.447214
    outer loop
      vertex -0.5 0.5 8
      vertex -0.75 -0.25 8.5
      vertex -0.75 0.25 8.5
    endloop
  endfacet
  facet normal -0.894427 0 -0.447214
    outer loop
      vertex -0.75 -0.25 8.5
      vertex -0.5 0.5 8
      vertex -0.5 -0.5 8
    endloop
  endfacet
  facet normal 0.894427 0 -0.447214
    outer loop
      vertex 0.75 -0.25 8.5
      vertex 0.5 0.5 8
      vertex 0.75 0.25 8.5
    endloop
  endfacet
  facet normal 0.894427 0 -0.447214
    outer loop
      vertex 0.5 0.5 8
      vertex 0.75 -0.25 8.5
      vertex 0.5 -0.5 8
    endloop
  endfacet
  facet normal 0.894427 0 -0.447214
    outer loop
      vertex -3.875 -4 1.25
      vertex -0.5 -0.5 8
      vertex -0.25 -0.75 8.5
    endloop
  endfacet
  facet normal 0.894427 0 -0.447214
    outer loop
      vertex -0.5 -0.5 8
      vertex -3.875 -4 1.25
      vertex -3.875 -3.875 1.25
    endloop
  endfacet
  facet normal 0.894427 0 -0.447214
    outer loop
      vertex -3.875 -4 1.25
      vertex -4 -4.5 1
      vertex -4 -4 1
    endloop
  endfacet
  facet normal 0.894427 0 -0.447214
    outer loop
      vertex -4 -4.5 1
      vertex -3.875 -4 1.25
      vertex -0.25 -0.75 8.5
    endloop
  endfacet
  facet normal 0 -0.894427 -0.447214
    outer loop
      vertex -0.5 -0.5 8
      vertex 0.25 -0.75 8.5
      vertex -0.25 -0.75 8.5
    endloop
  endfacet
  facet normal 0 -0.894427 -0.447214
    outer loop
      vertex 0.25 -0.75 8.5
      vertex -0.5 -0.5 8
      vertex 0.5 -0.5 8
    endloop
  endfacet
  facet normal -0.894427 -0 -0.447214
    outer loop
      vertex 4 -4 1
      vertex 4 -4.5 1
      vertex 3.875 -4 1.25
    endloop
  endfacet
  facet normal -0.894427 0 -0.447214
    outer loop
      vertex 3.875 -4 1.25
      vertex 0.5 -0.5 8
      vertex 3.875 -3.875 1.25
    endloop
  endfacet
  facet normal -0.894427 0 -0.447214
    outer loop
      vertex 0.5 -0.5 8
      vertex 3.875 -4 1.25
      vertex 0.25 -0.75 8.5
    endloop
  endfacet
  facet normal -0.894427 0 -0.447214
    outer loop
      vertex 0.25 -0.75 8.5
      vertex 3.875 -4 1.25
      vertex 4 -4.5 1
    endloop
  endfacet
  facet normal 0 0.894427 -0.447214
    outer loop
      vertex 0.5 0.5 8
      vertex -0.25 0.75 8.5
      vertex 0.25 0.75 8.5
    endloop
  endfacet
  facet normal 0 0.894427 -0.447214
    outer loop
      vertex -0.25 0.75 8.5
      vertex 0.5 0.5 8
      vertex -0.5 0.5 8
    endloop
  endfacet
  facet normal 0.894427 0 -0.447214
    outer loop
      vertex -0.25 0.75 8.5
      vertex -3.875 4 1.25
      vertex -4 4.5 1
    endloop
  endfacet
  facet normal 0.894427 0 -0.447214
    outer loop
      vertex -0.5 0.5 8
      vertex -3.875 4 1.25
      vertex -0.25 0.75 8.5
    endloop
  endfacet
  facet normal 0.894427 0 -0.447214
    outer loop
      vertex -3.875 4 1.25
      vertex -0.5 0.5 8
      vertex -3.875 3.875 1.25
    endloop
  endfacet
  facet normal 0.894427 0 -0.447214
    outer loop
      vertex -4 4.5 1
      vertex -3.875 4 1.25
      vertex -4 4 1
    endloop
  endfacet
  facet normal -0.894427 0 -0.447214
    outer loop
      vertex 3.875 4 1.25
      vertex 4 4.5 1
      vertex 4 4 1
    endloop
  endfacet
  facet normal -0.894427 0 -0.447214
    outer loop
      vertex 3.875 4 1.25
      vertex 0.25 0.75 8.5
      vertex 4 4.5 1
    endloop
  endfacet
  facet normal -0.894427 0 -0.447214
    outer loop
      vertex 0.5 0.5 8
      vertex 3.875 4 1.25
      vertex 3.875 3.875 1.25
    endloop
  endfacet
  facet normal -0.894427 0 -0.447214
    outer loop
      vertex 3.875 4 1.25
      vertex 0.5 0.5 8
      vertex 0.25 0.75 8.5
    endloop
  endfacet
  facet normal 0 0.894427 -0.447214
    outer loop
      vertex 0 0 9
      vertex 0.5 -0.5 8
      vertex -0.5 -0.5 8
    endloop
  endfacet
  facet normal 0.894427 0 -0.447214
    outer loop
      vertex -0.5 0.5 8
      vertex 0 0 9
      vertex -0.5 -0.5 8
    endloop
  endfacet
  facet normal -0 -0.894427 -0.447214
    outer loop
      vertex 0.5 0.5 8
      vertex 0 0 9
      vertex -0.5 0.5 8
    endloop
  endfacet
  facet normal -0.894427 -0 -0.447214
    outer loop
      vertex 0.5 0.5 8
      vertex 0.5 -0.5 8
      vertex 0 0 9
    endloop
  endfacet
  facet normal 0 0 -1
    outer loop
      vertex 4.75 -4.75 0.5
      vertex 4 -4 0.5
      vertex 4.75 4.75 0.5
    endloop
  endfacet
  facet normal 0 0 -1
    outer loop
      vertex 4.75 -4.75 0.5
      vertex -4 -4 0.5
      vertex 4 -4 0.5
    endloop
  endfacet
  facet normal -0 0 -1
    outer loop
      vertex -4 -4 0.5
      vertex -4.75 -4.75 0.5
      vertex -4 4 0.5
    endloop
  endfacet
  facet normal 0 0 -1
    outer loop
      vertex -4.75 -4.75 0.5
      vertex -4 -4 0.5
      vertex 4.75 -4.75 0.5
    endloop
  endfacet
  facet normal 0 0 -1
    outer loop
      vertex 4 4 0.5
      vertex 4.75 4.75 0.5
      vertex 4 -4 0.5
    endloop
  endfacet
  facet normal 0 0 -1
    outer loop
      vertex -4 4 0.5
      vertex 4.75 4.75 0.5
      vertex 4 4 0.5
    endloop
  endfacet
  facet normal 0 0 -1
    outer loop
      vertex -4 4 0.5
      vertex -4.75 4.75 0.5
      vertex 4.75 4.75 0.5
    endloop
  endfacet
  facet normal 0 0 -1
    outer loop
      vertex -4.75 4.75 0.5
      vertex -4 4 0.5
      vertex -4.75 -4.75 0.5
    endloop
  endfacet
  facet normal 1 0 0
    outer loop
      vertex -4 -3.875 1.25
      vertex -4 -4 1.25
      vertex -4 -4 1
    endloop
  endfacet
  facet normal 1 -0 0
    outer loop
      vertex -4 -4 1
      vertex -4 4 0.5
      vertex -4 4 1
    endloop
  endfacet
  facet normal 1 0 0
    outer loop
      vertex -4 4 0.5
      vertex -4 -4 1
      vertex -4 -4 0.5
    endloop
  endfacet
  facet normal 1 0 -0
    outer loop
      vertex -4 4 1
      vertex -4 4 1.25
      vertex -4 3.875 1.25
    endloop
  endfacet
  facet normal 0 0 -1
    outer loop
      vertex -4 -4 1.25
      vertex -3.875 -3.875 1.25
      vertex -3.875 -4 1.25
    endloop
  endfacet
  facet normal -0 0 -1
    outer loop
      vertex -3.875 -3.875 1.25
      vertex -4 -4 1.25
      vertex -4 -3.875 1.25
    endloop
  endfacet
  facet normal 0 0 -1
    outer loop
      vertex 3.875 -4 1.25
      vertex 4 -3.875 1.25
      vertex 4 -4 1.25
    endloop
  endfacet
  facet normal -0 0 -1
    outer loop
      vertex 4 -3.875 1.25
      vertex 3.875 -4 1.25
      vertex 3.875 -3.875 1.25
    endloop
  endfacet
  facet normal 0 0 -1
    outer loop
      vertex 3.875 3.875 1.25
      vertex 4 4 1.25
      vertex 4 3.875 1.25
    endloop
  endfacet
  facet normal -0 0 -1
    outer loop
      vertex 4 4 1.25
      vertex 3.875 3.875 1.25
      vertex 3.875 4 1.25
    endloop
  endfacet
  facet normal 0 0 -1
    outer loop
      vertex -4 3.875 1.25
      vertex -3.875 4 1.25
      vertex -3.875 3.875 1.25
    endloop
  endfacet
  facet normal -0 0 -1
    outer loop
      vertex -3.875 4 1.25
      vertex -4 3.875 1.25
      vertex -4 4 1.25
    endloop
  endfacet
  facet normal -1 0 0
    outer loop
      vertex 4 -4 1.25
      vertex 4 -3.875 1.25
      vertex 4 -4 1
    endloop
  endfacet
  facet normal -1 0 0
    outer loop
      vertex 4 -4 0.5
      vertex 4 4 1
      vertex 4 4 0.5
    endloop
  endfacet
  facet normal -1 -0 0
    outer loop
      vertex 4 4 1
      vertex 4 -4 0.5
      vertex 4 -4 1
    endloop
  endfacet
  facet normal -1 -0 -0
    outer loop
      vertex 4 4 1.25
      vertex 4 4 1
      vertex 4 3.875 1.25
    endloop
  endfacet
  facet normal -0 -1 0
    outer loop
      vertex -3.875 4 1.25
      vertex -4 4 1.25
      vertex -4 4 1
    endloop
  endfacet
  facet normal 0 -1 0
    outer loop
      vertex -4 4 0.5
      vertex 4 4 1
      vertex -4 4 1
    endloop
  endfacet
  facet normal 0 -1 -0
    outer loop
      vertex 4 4 1
      vertex -4 4 0.5
      vertex 4 4 0.5
    endloop
  endfacet
  facet normal 0 -1 0
    outer loop
      vertex 4 4 1
      vertex 4 4 1.25
      vertex 3.875 4 1.25
    endloop
  endfacet
  facet normal -0 1 0
    outer loop
      vertex -4 -4 1.25
      vertex -3.875 -4 1.25
      vertex -4 -4 1
    endloop
  endfacet
  facet normal 0 1 -0
    outer loop
      vertex 4 -4 0.5
      vertex -4 -4 1
      vertex 4 -4 1
    endloop
  endfacet
  facet normal 0 1 0
    outer loop
      vertex -4 -4 1
      vertex 4 -4 0.5
      vertex -4 -4 0.5
    endloop
  endfacet
  facet normal 0 1 0
    outer loop
      vertex 4 -4 1.25
      vertex 4 -4 1
      vertex 3.875 -4 1.25
    endloop
  endfacet
endsolid OpenSCAD_Model
